<?xml version="1.0" encoding="utf-8"?>
<!-- Generator: Adobe Illustrator 23.1.0, SVG Export Plug-In . SVG Version: 6.00 Build 0)  -->
<svg version="1.1" xmlns="http://www.w3.org/2000/svg" xmlns:xlink="http://www.w3.org/1999/xlink" x="0px" y="0px"
	 viewBox="0 0 4674 326.7" style="enable-background:new 0 0 4674 326.7;" xml:space="preserve">
<style type="text/css">
	.st0{clip-path:url(#SVGID_2_);}
	.st1{clip-path:url(#SVGID_3_);}
	.st2{fill:none;stroke:#FFFFFF;stroke-miterlimit:10;}
	.st3{fill:none;stroke:#FC2100;stroke-linecap:round;stroke-miterlimit:10;}
	.st4{fill:url(#SVGID_4_);}
	.st5{fill:url(#SVGID_5_);}
	.st6{fill:url(#SVGID_6_);}
	.st7{fill:url(#SVGID_8_);}
	.st8{fill:url(#SVGID_9_);}
	.st9{fill:url(#SVGID_10_);}
	.st10{fill:url(#SVGID_11_);}
	.st11{fill:url(#SVGID_12_);}
	.st12{fill:url(#SVGID_13_);}
	.st13{fill:url(#SVGID_14_);}
	.st14{clip-path:url(#SVGID_15_);}
	.st15{clip-path:url(#SVGID_16_);}
	.st16{fill:url(#SVGID_17_);}
	.st17{fill:url(#SVGID_18_);}
	.st18{fill:url(#SVGID_19_);}
	.st19{fill:url(#SVGID_20_);}
	.st20{fill:url(#SVGID_21_);}
	.st21{fill:url(#SVGID_22_);}
	.st22{fill:url(#SVGID_24_);}
	.st23{fill:url(#SVGID_25_);}
	.st24{fill:url(#SVGID_26_);}
	.st25{fill:url(#SVGID_27_);}
	.st26{fill:#FFFFFF;}
	.st27{clip-path:url(#SVGID_30_);}
</style>
<g id="Layer_1">
	<g>
		<g>
			<defs>
				<rect id="SVGID_1_" x="-2040" width="1000" height="750"/>
			</defs>
			<clipPath id="SVGID_2_">
				<use xlink:href="#SVGID_1_"  style="overflow:visible;"/>
			</clipPath>
			<g class="st0">
			</g>
		</g>
	</g>
	<image style="overflow:visible;" width="1600" height="900" xlink:href="754E013C.jpg"  transform="matrix(1 0 0 1 -9982 -7692)">
	</image>
	<image style="overflow:visible;" width="1600" height="900" xlink:href="754E013D.jpg"  transform="matrix(1 0 0 1 -9982 -7692)">
	</image>
	<text transform="matrix(1 0 0 1 -1903.1315 240.1032)"><tspan x="0" y="0" style="opacity:0.19;fill:#FFFFFF; font-family:'TitilliumWeb-Regular'; font-size:13px;">[Asfalto Ascari Logo]</tspan><tspan x="0" y="17" class="st26" style="font-family:'TitilliumWeb-Bold'; font-size:13px;">First name Last name</tspan><tspan x="0" y="34" class="st26" style="font-family:'TitilliumWeb-Regular'; font-size:13px;">Job Title</tspan><tspan x="0" y="51" class="st26" style="font-family:'TitilliumWeb-Regular'; font-size:13px;">Department - Siglum</tspan><tspan x="0" y="68" class="st26" style="font-family:'TitilliumWeb-SemiBold'; font-size:13px;">Asfalto Ascari / Division</tspan><tspan x="0" y="102" class="st26" style="font-family:'TitilliumWeb-Black'; font-size:13px;">T</tspan><tspan x="6.7" y="102" class="st26" style="font-family:'TitilliumWeb-Regular'; font-size:13px;">  +00 (0)0 00 00 00 00</tspan><tspan x="0" y="136" class="st26" style="font-family:'TitilliumWeb-Black'; font-size:13px;">E</tspan><tspan x="7.1" y="136" class="st26" style="font-family:'TitilliumWeb-Regular'; font-size:13px;">  Firstname.Lastname@AsfaltoAscari.com</tspan><tspan x="0" y="170" class="st26" style="font-family:'TitilliumWeb-Regular'; font-size:13px; letter-spacing:33;">	</tspan></text>
	<polygon style="fill:none;" points="-2004.6,358.1 -1998,358.1 -1998,358.1 -2004.6,358.1 	"/>
	<g>
		<g>
			<defs>
				<path id="SVGID_7_" d="M-2005.7,349.1h69.4l12-11l-12-12h-69.4c-2.5,0-4.6,2.1-4.6,4.6v13.8
					C-2010.3,347-2008.2,349.1-2005.7,349.1z"/>
			</defs>
			<clipPath id="SVGID_3_">
				<use xlink:href="#SVGID_7_"  style="overflow:visible;"/>
			</clipPath>
			<g class="st1">
			</g>
		</g>
	</g>
	<g>
		
			<text transform="matrix(1 0 0 1 -2002.3091 341.5992)" class="st26" style="font-family:'TitilliumWeb-Regular'; font-size:13px;">Optional</text>
	</g>
	<polygon style="fill:none;" points="-2004.6,358.1 -1998,358.1 -1998,358.1 -2004.6,358.1 	"/>
	<polygon style="fill:none;" points="-2004.6,358.1 -1998,358.1 -1998,358.1 -2004.6,358.1 	"/>
	<polygon style="fill:none;" points="-2004.6,358.1 -1998,358.1 -1998,358.1 -2004.6,358.1 	"/>
	<polygon style="fill:none;" points="-2004.6,358.1 -1998,358.1 -1998,358.1 -2004.6,358.1 	"/>
	<line class="st2" x1="-1916.8" y1="401" x2="-1916.8" y2="151.6"/>
	<text transform="matrix(1 0 0 1 -1557.4734 240.1032)" style="opacity:0.54;"><tspan x="0" y="0" style="fill:#FC2100; font-family:'TitilliumWeb-ExtraLight'; font-size:13px;">Asfalto Ascari Logo G3E</tspan><tspan x="74.1" y="17" class="st26" style="font-family:'TitilliumWeb-ExtraLight'; font-size:13px;">10px Bold</tspan><tspan x="57.3" y="34" class="st26" style="font-family:'TitilliumWeb-ExtraLight'; font-size:13px;">10px Regular</tspan><tspan x="57.3" y="51" class="st26" style="font-family:'TitilliumWeb-ExtraLight'; font-size:13px;">10px Regular</tspan><tspan x="47.2" y="68" class="st26" style="font-family:'TitilliumWeb-ExtraLight'; font-size:13px;">10px SemiBold</tspan><tspan x="14.1" y="102" class="st26" style="font-family:'TitilliumWeb-ExtraLight'; font-size:13px;">10px Black &amp; Regular</tspan><tspan x="14.1" y="136" class="st26" style="font-family:'TitilliumWeb-ExtraLight'; font-size:13px;">10px Black &amp; Regular</tspan><tspan x="92.2" y="170" class="st26" style="font-family:'ArialMT'; font-size:13px; letter-spacing:32;">	</tspan></text>
	<line class="st3" x1="-1415.8" y1="702" x2="-1415.8" y2="151.6"/>
	<text transform="matrix(1 0 0 1 -1401.0994 299.7985)"><tspan x="0" y="0" class="st26" style="font-family:'TitilliumWeb-Bold'; font-size:13px;">Antoan Phu</tspan><tspan x="0" y="17" class="st26" style="font-family:'TitilliumWeb-Regular'; font-size:13px;">Managing Director</tspan><tspan x="0" y="34" class="st26" style="font-family:'TitilliumWeb-Regular'; font-size:13px;">Board of Directors - EUM</tspan><tspan x="0" y="51" class="st26" style="font-family:'TitilliumWeb-SemiBold'; font-size:13px;">Asfalto Ascari / Management</tspan><tspan x="0" y="85" class="st26" style="font-family:'TitilliumWeb-Black'; font-size:13px;">T</tspan><tspan x="6.7" y="85" class="st26" style="font-family:'TitilliumWeb-Regular'; font-size:13px;">  +44 7XXXXX7555</tspan><tspan x="0" y="119" class="st26" style="font-family:'TitilliumWeb-Black'; font-size:13px;">E</tspan><tspan x="7.1" y="119" class="st26" style="font-family:'TitilliumWeb-Regular'; font-size:13px;">  Antoan.Phu@AsfaltoAscari.com</tspan><tspan x="0" y="153" class="st26" style="font-family:'TitilliumWeb-Light'; font-size:13px; letter-spacing:33;">	</tspan></text>
	<polygon style="fill:none;" points="-1339.2,448.8 -1332.6,448.8 -1332.6,448.8 -1339.2,448.8 	"/>
	<g>
		<g>
			<g>
				<linearGradient id="SVGID_4_" gradientUnits="userSpaceOnUse" x1="-1353.5405" y1="236.8109" x2="-1392.1016" y2="278.1625">
					<stop  offset="0" style="stop-color:#EF0000"/>
					<stop  offset="0.1656" style="stop-color:#DF0000"/>
					<stop  offset="0.4893" style="stop-color:#B50000"/>
					<stop  offset="0.9358" style="stop-color:#720000"/>
					<stop  offset="1" style="stop-color:#680000"/>
				</linearGradient>
				<polygon class="st4" points="-1378.2,230.1 -1382.4,239.2 -1366.6,275.1 -1358.3,275.1 				"/>
				<linearGradient id="SVGID_5_" gradientUnits="userSpaceOnUse" x1="-1349.6251" y1="238.5268" x2="-1388.0378" y2="279.7193">
					<stop  offset="0" style="stop-color:#EF0000"/>
					<stop  offset="0.1656" style="stop-color:#DF0000"/>
					<stop  offset="0.4893" style="stop-color:#B50000"/>
					<stop  offset="0.9358" style="stop-color:#720000"/>
					<stop  offset="1" style="stop-color:#680000"/>
				</linearGradient>
				<path class="st5" d="M-1376.7,229.1L-1376.7,229.1l20.5,46h8.3l-17-38.4C-1367,232.1-1371.6,229.1-1376.7,229.1z"/>
			</g>
		</g>
		<linearGradient id="SVGID_6_" gradientUnits="userSpaceOnUse" x1="-1355.817" y1="232.8382" x2="-1399.0093" y2="279.1562">
			<stop  offset="0" style="stop-color:#EF0000"/>
			<stop  offset="0.1656" style="stop-color:#DF0000"/>
			<stop  offset="0.4893" style="stop-color:#B50000"/>
			<stop  offset="0.9358" style="stop-color:#720000"/>
			<stop  offset="1" style="stop-color:#680000"/>
		</linearGradient>
		<polygon class="st6" points="-1391.7,260.3 -1398.7,275.1 -1384.9,275.1 		"/>
		<linearGradient id="SVGID_8_" gradientUnits="userSpaceOnUse" x1="-1354.849" y1="232.1798" x2="-1398.0413" y2="278.4978">
			<stop  offset="0" style="stop-color:#EF0000"/>
			<stop  offset="0.1656" style="stop-color:#DF0000"/>
			<stop  offset="0.4893" style="stop-color:#B50000"/>
			<stop  offset="0.9358" style="stop-color:#720000"/>
			<stop  offset="1" style="stop-color:#680000"/>
		</linearGradient>
		<polygon class="st7" points="-1383.4,273.9 -1376.5,259.1 -1390.3,259.1 		"/>
		<linearGradient id="SVGID_9_" gradientUnits="userSpaceOnUse" x1="-1360.5387" y1="228.8065" x2="-1403.7308" y2="275.1245">
			<stop  offset="0" style="stop-color:#EF0000"/>
			<stop  offset="0.1656" style="stop-color:#DF0000"/>
			<stop  offset="0.4893" style="stop-color:#B50000"/>
			<stop  offset="0.9358" style="stop-color:#720000"/>
			<stop  offset="1" style="stop-color:#680000"/>
		</linearGradient>
		<polygon class="st8" points="-1383.4,242.3 -1390.4,257.1 -1376.6,257.1 		"/>
	</g>
	<text transform="matrix(1 0 0 1 -1401.0994 571.6268)"><tspan x="0" y="0" class="st26" style="font-family:'TitilliumWeb-Bold'; font-size:13px;">Daisy Haynes</tspan><tspan x="0" y="17" class="st26" style="font-family:'TitilliumWeb-Regular'; font-size:13px;">Managing Associate</tspan><tspan x="0" y="34" class="st26" style="font-family:'TitilliumWeb-Regular'; font-size:13px;">Management - EUMA</tspan><tspan x="0" y="51" class="st26" style="font-family:'TitilliumWeb-SemiBold'; font-size:13px;">Asfalto Ascari / Management</tspan><tspan x="0" y="85" class="st26" style="font-family:'TitilliumWeb-Black'; font-size:13px;">T</tspan><tspan x="6.7" y="85" class="st26" style="font-family:'TitilliumWeb-Regular'; font-size:13px;">  +XX XXXXXXXXXX</tspan><tspan x="0" y="119" class="st26" style="font-family:'TitilliumWeb-Black'; font-size:13px;">E</tspan><tspan x="7.1" y="119" class="st26" style="font-family:'TitilliumWeb-Regular'; font-size:13px;">  Daisy.Haynes@AsfaltoAscari.com</tspan><tspan x="0" y="153" class="st26" style="font-family:'TitilliumWeb-Light'; font-size:13px; letter-spacing:33;">	</tspan></text>
	<polygon style="fill:none;" points="-1339.2,720.6 -1332.6,720.6 -1332.6,720.6 -1339.2,720.6 	"/>
	<g>
		<g>
			<g>
				<linearGradient id="SVGID_10_" gradientUnits="userSpaceOnUse" x1="-1353.5405" y1="508.8109" x2="-1392.1016" y2="550.1625">
					<stop  offset="0" style="stop-color:#EF0000"/>
					<stop  offset="0.1656" style="stop-color:#DF0000"/>
					<stop  offset="0.4893" style="stop-color:#B50000"/>
					<stop  offset="0.9358" style="stop-color:#720000"/>
					<stop  offset="1" style="stop-color:#680000"/>
				</linearGradient>
				<polygon class="st9" points="-1378.2,502.1 -1382.4,511.2 -1366.6,547.1 -1358.3,547.1 				"/>
				<linearGradient id="SVGID_11_" gradientUnits="userSpaceOnUse" x1="-1349.6251" y1="510.5268" x2="-1388.0378" y2="551.7193">
					<stop  offset="0" style="stop-color:#EF0000"/>
					<stop  offset="0.1656" style="stop-color:#DF0000"/>
					<stop  offset="0.4893" style="stop-color:#B50000"/>
					<stop  offset="0.9358" style="stop-color:#720000"/>
					<stop  offset="1" style="stop-color:#680000"/>
				</linearGradient>
				<path class="st10" d="M-1376.7,501.1L-1376.7,501.1l20.5,46h8.3l-17-38.4C-1367,504.1-1371.6,501.1-1376.7,501.1z"/>
			</g>
		</g>
		<linearGradient id="SVGID_12_" gradientUnits="userSpaceOnUse" x1="-1355.817" y1="504.8382" x2="-1399.0093" y2="551.1562">
			<stop  offset="0" style="stop-color:#EF0000"/>
			<stop  offset="0.1656" style="stop-color:#DF0000"/>
			<stop  offset="0.4893" style="stop-color:#B50000"/>
			<stop  offset="0.9358" style="stop-color:#720000"/>
			<stop  offset="1" style="stop-color:#680000"/>
		</linearGradient>
		<polygon class="st11" points="-1391.7,532.3 -1398.7,547.1 -1384.9,547.1 		"/>
		<linearGradient id="SVGID_13_" gradientUnits="userSpaceOnUse" x1="-1354.849" y1="504.1798" x2="-1398.0413" y2="550.4978">
			<stop  offset="0" style="stop-color:#EF0000"/>
			<stop  offset="0.1656" style="stop-color:#DF0000"/>
			<stop  offset="0.4893" style="stop-color:#B50000"/>
			<stop  offset="0.9358" style="stop-color:#720000"/>
			<stop  offset="1" style="stop-color:#680000"/>
		</linearGradient>
		<polygon class="st12" points="-1383.4,545.9 -1376.5,531.1 -1390.3,531.1 		"/>
		<linearGradient id="SVGID_14_" gradientUnits="userSpaceOnUse" x1="-1360.5387" y1="500.8065" x2="-1403.7308" y2="547.1245">
			<stop  offset="0" style="stop-color:#EF0000"/>
			<stop  offset="0.1656" style="stop-color:#DF0000"/>
			<stop  offset="0.4893" style="stop-color:#B50000"/>
			<stop  offset="0.9358" style="stop-color:#720000"/>
			<stop  offset="1" style="stop-color:#680000"/>
		</linearGradient>
		<polygon class="st13" points="-1383.4,514.3 -1390.4,529.1 -1376.6,529.1 		"/>
	</g>
	
		<text transform="matrix(1 0 0 1 -1903.1315 181.8548)" class="st26" style="font-family:'Formula1-Display-Wide'; font-size:15.8035px;">Email Format</text>
	
		<text transform="matrix(1 0 0 1 -1401.0994 181.8548)" class="st26" style="font-family:'Formula1-Display-Wide'; font-size:15.8035px;">Examples</text>
	
		<text transform="matrix(1 0 0 1 -1902.5819 73.5798)" class="st26" style="font-family:'Formula1-Display-Black'; font-size:34px;">ASFALTO ASCARI </text>
	
		<text transform="matrix(1 0 0 1 -1902.5819 105.4576)" class="st26" style="font-family:'Formula1-Display-Wide'; font-size:18px;">ONE CONSISTENT E-MAIL SIGNATURE</text>
	<g>
		<g>
			<defs>
				<rect id="SVGID_23_" x="-1020" width="1000" height="750"/>
			</defs>
			<clipPath id="SVGID_15_">
				<use xlink:href="#SVGID_23_"  style="overflow:visible;"/>
			</clipPath>
			<g class="st14">
			</g>
		</g>
	</g>
	<text transform="matrix(1 0 0 1 -883.1315 240.1032)"><tspan x="0" y="0" style="opacity:0.19;fill:#FFFFFF; font-family:'TitilliumWeb-Regular'; font-size:13px;">[Asfalto Ascari Logo]</tspan><tspan x="0" y="17" class="st26" style="font-family:'TitilliumWeb-Bold'; font-size:13px;">First name Last name</tspan><tspan x="0" y="34" class="st26" style="font-family:'TitilliumWeb-Regular'; font-size:13px;">Job Title</tspan><tspan x="0" y="51" class="st26" style="font-family:'TitilliumWeb-Regular'; font-size:13px;">Department - Siglum</tspan><tspan x="0" y="68" class="st26" style="font-family:'TitilliumWeb-SemiBold'; font-size:13px;">Asfalto Ascari / Division</tspan><tspan x="0" y="102" class="st26" style="font-family:'TitilliumWeb-Black'; font-size:13px;">T</tspan><tspan x="6.7" y="102" class="st26" style="font-family:'TitilliumWeb-Regular'; font-size:13px;">  +00 (0)0 00 00 00 00</tspan><tspan x="0" y="136" class="st26" style="font-family:'TitilliumWeb-Black'; font-size:13px;">E</tspan><tspan x="7.1" y="136" class="st26" style="font-family:'TitilliumWeb-Regular'; font-size:13px;">  Firstname.Lastname@AsfaltoAscari.com</tspan><tspan x="0" y="170" class="st26" style="font-family:'TitilliumWeb-Regular'; font-size:13px; letter-spacing:33;">	</tspan></text>
	<polygon style="fill:none;" points="-984.6,358.1 -978,358.1 -978,358.1 -984.6,358.1 	"/>
	<g>
		<g>
			<defs>
				<path id="SVGID_29_" d="M-985.7,349.1h69.4l12-11l-12-12h-69.4c-2.5,0-4.6,2.1-4.6,4.6v13.8C-990.3,347-988.2,349.1-985.7,349.1
					z"/>
			</defs>
			<clipPath id="SVGID_16_">
				<use xlink:href="#SVGID_29_"  style="overflow:visible;"/>
			</clipPath>
			<g class="st15">
			</g>
		</g>
	</g>
	<g>
		<text transform="matrix(1 0 0 1 -982.3091 341.5992)" class="st26" style="font-family:'TitilliumWeb-Regular'; font-size:13px;">Optional</text>
	</g>
	<polygon style="fill:none;" points="-984.6,358.1 -978,358.1 -978,358.1 -984.6,358.1 	"/>
	<polygon style="fill:none;" points="-984.6,358.1 -978,358.1 -978,358.1 -984.6,358.1 	"/>
	<polygon style="fill:none;" points="-984.6,358.1 -978,358.1 -978,358.1 -984.6,358.1 	"/>
	<polygon style="fill:none;" points="-984.6,358.1 -978,358.1 -978,358.1 -984.6,358.1 	"/>
	<line class="st2" x1="-896.8" y1="401" x2="-896.8" y2="151.6"/>
	<text transform="matrix(1 0 0 1 -537.4734 240.1032)" style="opacity:0.54;"><tspan x="0" y="0" style="fill:#FC2100; font-family:'TitilliumWeb-ExtraLight'; font-size:13px;">Asfalto Ascari Logo G3E</tspan><tspan x="74.1" y="17" class="st26" style="font-family:'TitilliumWeb-ExtraLight'; font-size:13px;">10px Bold</tspan><tspan x="57.3" y="34" class="st26" style="font-family:'TitilliumWeb-ExtraLight'; font-size:13px;">10px Regular</tspan><tspan x="57.3" y="51" class="st26" style="font-family:'TitilliumWeb-ExtraLight'; font-size:13px;">10px Regular</tspan><tspan x="47.2" y="68" class="st26" style="font-family:'TitilliumWeb-ExtraLight'; font-size:13px;">10px SemiBold</tspan><tspan x="14.1" y="102" class="st26" style="font-family:'TitilliumWeb-ExtraLight'; font-size:13px;">10px Black &amp; Regular</tspan><tspan x="14.1" y="136" class="st26" style="font-family:'TitilliumWeb-ExtraLight'; font-size:13px;">10px Black &amp; Regular</tspan><tspan x="92.2" y="170" class="st26" style="font-family:'ArialMT'; font-size:13px; letter-spacing:32;">	</tspan></text>
	<line class="st3" x1="-395.8" y1="702" x2="-395.8" y2="151.6"/>
	<text transform="matrix(1 0 0 1 -381.0994 299.7985)"><tspan x="0" y="0" class="st26" style="font-family:'TitilliumWeb-Bold'; font-size:13px;">Antoan Phu</tspan><tspan x="0" y="17" class="st26" style="font-family:'TitilliumWeb-Regular'; font-size:13px;">Managing Director</tspan><tspan x="0" y="34" class="st26" style="font-family:'TitilliumWeb-Regular'; font-size:13px;">Board of Directors - EUM</tspan><tspan x="0" y="51" class="st26" style="font-family:'TitilliumWeb-SemiBold'; font-size:13px;">Asfalto Ascari / Management</tspan><tspan x="0" y="85" class="st26" style="font-family:'TitilliumWeb-Black'; font-size:13px;">T</tspan><tspan x="6.7" y="85" class="st26" style="font-family:'TitilliumWeb-Regular'; font-size:13px;">  +44 7XXXXX7555</tspan><tspan x="0" y="119" class="st26" style="font-family:'TitilliumWeb-Black'; font-size:13px;">E</tspan><tspan x="7.1" y="119" class="st26" style="font-family:'TitilliumWeb-Regular'; font-size:13px;">  Antoan.Phu@AsfaltoAscari.com</tspan><tspan x="0" y="153" class="st26" style="font-family:'TitilliumWeb-Light'; font-size:13px; letter-spacing:33;">	</tspan></text>
	<polygon style="fill:none;" points="-319.2,448.8 -312.6,448.8 -312.6,448.8 -319.2,448.8 	"/>
	<g>
		<g>
			<g>
				<linearGradient id="SVGID_17_" gradientUnits="userSpaceOnUse" x1="-333.5406" y1="236.8109" x2="-372.1015" y2="278.1625">
					<stop  offset="0" style="stop-color:#EF0000"/>
					<stop  offset="0.1656" style="stop-color:#DF0000"/>
					<stop  offset="0.4893" style="stop-color:#B50000"/>
					<stop  offset="0.9358" style="stop-color:#720000"/>
					<stop  offset="1" style="stop-color:#680000"/>
				</linearGradient>
				<polygon class="st16" points="-358.2,230.1 -362.4,239.2 -346.6,275.1 -338.3,275.1 				"/>
				<linearGradient id="SVGID_18_" gradientUnits="userSpaceOnUse" x1="-329.6252" y1="238.5268" x2="-368.0378" y2="279.7193">
					<stop  offset="0" style="stop-color:#EF0000"/>
					<stop  offset="0.1656" style="stop-color:#DF0000"/>
					<stop  offset="0.4893" style="stop-color:#B50000"/>
					<stop  offset="0.9358" style="stop-color:#720000"/>
					<stop  offset="1" style="stop-color:#680000"/>
				</linearGradient>
				<path class="st17" d="M-356.7,229.1L-356.7,229.1l20.5,46h8.3l-17-38.4C-347,232.1-351.6,229.1-356.7,229.1z"/>
			</g>
		</g>
		<linearGradient id="SVGID_19_" gradientUnits="userSpaceOnUse" x1="-335.817" y1="232.8382" x2="-379.0092" y2="279.1562">
			<stop  offset="0" style="stop-color:#EF0000"/>
			<stop  offset="0.1656" style="stop-color:#DF0000"/>
			<stop  offset="0.4893" style="stop-color:#B50000"/>
			<stop  offset="0.9358" style="stop-color:#720000"/>
			<stop  offset="1" style="stop-color:#680000"/>
		</linearGradient>
		<polygon class="st18" points="-371.7,260.3 -378.7,275.1 -364.9,275.1 		"/>
		<linearGradient id="SVGID_20_" gradientUnits="userSpaceOnUse" x1="-334.849" y1="232.1798" x2="-378.0412" y2="278.4978">
			<stop  offset="0" style="stop-color:#EF0000"/>
			<stop  offset="0.1656" style="stop-color:#DF0000"/>
			<stop  offset="0.4893" style="stop-color:#B50000"/>
			<stop  offset="0.9358" style="stop-color:#720000"/>
			<stop  offset="1" style="stop-color:#680000"/>
		</linearGradient>
		<polygon class="st19" points="-363.4,273.9 -356.5,259.1 -370.3,259.1 		"/>
		<linearGradient id="SVGID_21_" gradientUnits="userSpaceOnUse" x1="-340.5387" y1="228.8065" x2="-383.7309" y2="275.1245">
			<stop  offset="0" style="stop-color:#EF0000"/>
			<stop  offset="0.1656" style="stop-color:#DF0000"/>
			<stop  offset="0.4893" style="stop-color:#B50000"/>
			<stop  offset="0.9358" style="stop-color:#720000"/>
			<stop  offset="1" style="stop-color:#680000"/>
		</linearGradient>
		<polygon class="st20" points="-363.4,242.3 -370.4,257.1 -356.6,257.1 		"/>
	</g>
	<text transform="matrix(1 0 0 1 -381.0994 571.6268)"><tspan x="0" y="0" class="st26" style="font-family:'TitilliumWeb-Bold'; font-size:13px;">Daisy Haynes</tspan><tspan x="0" y="17" class="st26" style="font-family:'TitilliumWeb-Regular'; font-size:13px;">Managing Associate</tspan><tspan x="0" y="34" class="st26" style="font-family:'TitilliumWeb-Regular'; font-size:13px;">Management - EUMA</tspan><tspan x="0" y="51" class="st26" style="font-family:'TitilliumWeb-SemiBold'; font-size:13px;">Asfalto Ascari / Management</tspan><tspan x="0" y="85" class="st26" style="font-family:'TitilliumWeb-Black'; font-size:13px;">T</tspan><tspan x="6.7" y="85" class="st26" style="font-family:'TitilliumWeb-Regular'; font-size:13px;">  +XX XXXXXXXXXX</tspan><tspan x="0" y="119" class="st26" style="font-family:'TitilliumWeb-Black'; font-size:13px;">E</tspan><tspan x="7.1" y="119" class="st26" style="font-family:'TitilliumWeb-Regular'; font-size:13px;">  Daisy.Haynes@AsfaltoAscari.com</tspan><tspan x="0" y="153" class="st26" style="font-family:'TitilliumWeb-Light'; font-size:13px; letter-spacing:33;">	</tspan></text>
	<polygon style="fill:none;" points="-319.2,720.6 -312.6,720.6 -312.6,720.6 -319.2,720.6 	"/>
	<g>
		<g>
			<g>
				<linearGradient id="SVGID_22_" gradientUnits="userSpaceOnUse" x1="-333.5406" y1="508.8109" x2="-372.1015" y2="550.1625">
					<stop  offset="0" style="stop-color:#EF0000"/>
					<stop  offset="0.1656" style="stop-color:#DF0000"/>
					<stop  offset="0.4893" style="stop-color:#B50000"/>
					<stop  offset="0.9358" style="stop-color:#720000"/>
					<stop  offset="1" style="stop-color:#680000"/>
				</linearGradient>
				<polygon class="st21" points="-358.2,502.1 -362.4,511.2 -346.6,547.1 -338.3,547.1 				"/>
				<linearGradient id="SVGID_24_" gradientUnits="userSpaceOnUse" x1="-329.6252" y1="510.5268" x2="-368.0378" y2="551.7193">
					<stop  offset="0" style="stop-color:#EF0000"/>
					<stop  offset="0.1656" style="stop-color:#DF0000"/>
					<stop  offset="0.4893" style="stop-color:#B50000"/>
					<stop  offset="0.9358" style="stop-color:#720000"/>
					<stop  offset="1" style="stop-color:#680000"/>
				</linearGradient>
				<path class="st22" d="M-356.7,501.1L-356.7,501.1l20.5,46h8.3l-17-38.4C-347,504.1-351.6,501.1-356.7,501.1z"/>
			</g>
		</g>
		<linearGradient id="SVGID_25_" gradientUnits="userSpaceOnUse" x1="-335.817" y1="504.8382" x2="-379.0092" y2="551.1562">
			<stop  offset="0" style="stop-color:#EF0000"/>
			<stop  offset="0.1656" style="stop-color:#DF0000"/>
			<stop  offset="0.4893" style="stop-color:#B50000"/>
			<stop  offset="0.9358" style="stop-color:#720000"/>
			<stop  offset="1" style="stop-color:#680000"/>
		</linearGradient>
		<polygon class="st23" points="-371.7,532.3 -378.7,547.1 -364.9,547.1 		"/>
		<linearGradient id="SVGID_26_" gradientUnits="userSpaceOnUse" x1="-334.849" y1="504.1798" x2="-378.0412" y2="550.4978">
			<stop  offset="0" style="stop-color:#EF0000"/>
			<stop  offset="0.1656" style="stop-color:#DF0000"/>
			<stop  offset="0.4893" style="stop-color:#B50000"/>
			<stop  offset="0.9358" style="stop-color:#720000"/>
			<stop  offset="1" style="stop-color:#680000"/>
		</linearGradient>
		<polygon class="st24" points="-363.4,545.9 -356.5,531.1 -370.3,531.1 		"/>
		<linearGradient id="SVGID_27_" gradientUnits="userSpaceOnUse" x1="-340.5387" y1="500.8065" x2="-383.7309" y2="547.1245">
			<stop  offset="0" style="stop-color:#EF0000"/>
			<stop  offset="0.1656" style="stop-color:#DF0000"/>
			<stop  offset="0.4893" style="stop-color:#B50000"/>
			<stop  offset="0.9358" style="stop-color:#720000"/>
			<stop  offset="1" style="stop-color:#680000"/>
		</linearGradient>
		<polygon class="st25" points="-363.4,514.3 -370.4,529.1 -356.6,529.1 		"/>
	</g>
	
		<text transform="matrix(1 0 0 1 -883.1315 181.8548)" class="st26" style="font-family:'Formula1-Display-Wide'; font-size:15.8035px;">Email Format</text>
	
		<text transform="matrix(1 0 0 1 -381.0994 181.8548)" class="st26" style="font-family:'Formula1-Display-Wide'; font-size:15.8035px;">Examples</text>
	<text transform="matrix(1 0 0 1 -882.5819 73.5798)" class="st26" style="font-family:'Formula1-Display-Black'; font-size:34px;">ASFALTO ASCARI </text>
	<text transform="matrix(1 0 0 1 -882.5819 105.4576)" class="st26" style="font-family:'Formula1-Display-Wide'; font-size:18px;">ONE CONSISTENT E-MAIL SIGNATURE</text>
	
		<text transform="matrix(1 0 0 1 -828.2336 -119.2103)" class="st26" style="font-family:'Formula1-Display-Black'; font-size:34px;">ASFALTO ASCARI - CORPORATE </text>
	<text transform="matrix(1 0 0 1 -882.5815 -58.1282)" class="st26" style="font-family:'Formula1-Display-Wide'; font-size:18px;">ASFALTO ASCARI - CORPORATE</text>
</g>
<g id="Layer_2">
	<g>
		<g>
			<g>
				<polygon class="st26" points="95,-261.9 85.6,-241 121.8,-158.8 140.7,-158.8 				"/>
				<path class="st26" d="M98.7-264.3L98.7-264.3l47,105.5h18.9l-39.1-88C120.8-257.4,110.3-264.3,98.7-264.3z"/>
			</g>
		</g>
		<polygon class="st26" points="64.1,-192.8 48.2,-158.8 79.8,-158.8 		"/>
		<polygon class="st26" points="83.1,-162.1 99,-196.1 67.4,-196.1 		"/>
		<polygon class="st26" points="83.1,-234.8 67.2,-200.8 98.8,-200.8 		"/>
	</g>
	<rect x="-11.3" y="-22.7" width="4710.4" height="397.7"/>
	<g>
		<g>
			<defs>
				<rect id="SVGID_28_" x="-12.6" y="-22.7" width="4713" height="397.7"/>
			</defs>
			<clipPath id="SVGID_30_">
				<use xlink:href="#SVGID_28_"  style="overflow:visible;"/>
			</clipPath>
			<g class="st27">
				<g>
					<defs>
						<rect id="SVGID_31_" x="-17.6" y="-27.7" width="4723" height="407.7"/>
					</defs>
					<clipPath id="SVGID_32_">
						<use xlink:href="#SVGID_31_"  style="overflow:visible;"/>
					</clipPath>
					<g style="clip-path:url(#SVGID_32_);">
						
							<image style="overflow:visible;" width="9840" height="850" xlink:href="754E013B.jpg"  transform="matrix(0.48 0 0 0.48 -17.76 -27.84)">
						</image>
					</g>
				</g>
			</g>
		</g>
	</g>
</g>
</svg>
